<svg xmlns="http://www.w3.org/2000/svg" xmlns:xlink="http://www.w3.org/1999/xlink" width="765.021" height="366.948" viewBox="0 0 765.021 366.948">
  <defs>
    <clipPath id="clip-path">
      <rect id="Rectangle_13" data-name="Rectangle 13" width="765.021" height="366.948" fill="#fff"/>
    </clipPath>
  </defs>
  <g id="Group_33" data-name="Group 33" transform="translate(-718 -1517)">
    <g id="Group_2" data-name="Group 2" transform="translate(718 1517)" clip-path="url(#clip-path)">
      <path id="Path_1" data-name="Path 1" d="M38.211,24.5s-21.739,0-21.739,21.739V357.626s0,21.739,21.739,21.739H747.677s21.739,0,21.739-21.739V46.24s0-21.739-21.739-21.739H38.211Z" transform="translate(-10.433 -18.462)" fill="none" stroke="#fff" stroke-width="1.8"/>
    </g>
    <g id="Group_3" data-name="Group 3" transform="translate(718 1517)" clip-path="url(#clip-path)">
      <path id="Path_2" data-name="Path 2" d="M47.314,63.057s-4.348,0-4.348,4.341v37.734s0,4.348,4.348,4.348H434.2s4.348,0,4.348-4.348V67.4s0-4.341-4.348-4.341H47.314Z" transform="translate(140.833 201.672)" fill="#fff"/>
    </g>
    <g id="Group_4" data-name="Group 4" transform="translate(718 1517)" clip-path="url(#clip-path)">
      <path id="Path_3" data-name="Path 3" d="M109.731,63.057s-4.348,0-4.348,4.341v37.734s0,4.348,4.348,4.348h99.636s4.348,0,4.348-4.348V67.4s0-4.341-4.348-4.341H109.731Z" transform="translate(497.202 201.672)" fill="#fff"/>
    </g>
    <g id="Group_5" data-name="Group 5" transform="translate(718 1517)" clip-path="url(#clip-path)">
      <path id="Path_4" data-name="Path 4" d="M27.846,63.057s-4.348,0-4.348,4.341v37.734s0,4.348,4.348,4.348h99.636s4.348,0,4.348-4.348V67.4s0-4.341-4.348-4.341H27.846Z" transform="translate(29.681 201.672)" fill="#fff"/>
    </g>
    <g id="Group_6" data-name="Group 6" transform="translate(718 1517)" clip-path="url(#clip-path)">
      <path id="Path_5" data-name="Path 5" d="M57.826,52.677s-4.341,0-4.341,4.341V94.752s0,4.348,4.341,4.348H95.56s4.348,0,4.348-4.348V57.018s0-4.341-4.348-4.341Z" transform="translate(200.891 142.408)" fill="#fff"/>
    </g>
    <g id="Group_7" data-name="Group 7" transform="translate(718 1517)" clip-path="url(#clip-path)">
      <path id="Path_6" data-name="Path 6" d="M47.452,52.677s-4.348,0-4.348,4.341V94.752s0,4.348,4.348,4.348H85.186s4.341,0,4.341-4.348V57.018s0-4.341-4.341-4.341Z" transform="translate(141.621 142.408)" fill="#fff"/>
    </g>
    <g id="Group_8" data-name="Group 8" transform="translate(718 1517)" clip-path="url(#clip-path)">
      <path id="Path_7" data-name="Path 7" d="M27.846,52.677s-4.348,0-4.348,4.341V94.752s0,4.348,4.348,4.348h99.636s4.348,0,4.348-4.348V57.018s0-4.341-4.348-4.341Z" transform="translate(29.681 142.408)" fill="#fff"/>
    </g>
    <g id="Group_9" data-name="Group 9" transform="translate(718 1517)" clip-path="url(#clip-path)">
      <path id="Path_8" data-name="Path 8" d="M68.212,52.677s-4.348,0-4.348,4.341V94.752s0,4.348,4.348,4.348h37.734s4.341,0,4.341-4.348V57.018s0-4.341-4.341-4.341Z" transform="translate(260.15 142.408)" fill="#fff"/>
    </g>
    <g id="Group_10" data-name="Group 10" transform="translate(718 1517)" clip-path="url(#clip-path)">
      <path id="Path_9" data-name="Path 9" d="M78.586,52.677s-4.341,0-4.341,4.341V94.752s0,4.348,4.341,4.348H116.32s4.348,0,4.348-4.348V57.018s0-4.341-4.348-4.341Z" transform="translate(319.42 142.408)" fill="#fff"/>
    </g>
    <g id="Group_11" data-name="Group 11" transform="translate(718 1517)" clip-path="url(#clip-path)">
      <path id="Path_10" data-name="Path 10" d="M88.971,52.677s-4.348,0-4.348,4.341V94.752s0,4.348,4.348,4.348H126.7s4.341,0,4.341-4.348V57.018s0-4.341-4.341-4.341Z" transform="translate(378.673 142.408)" fill="#fff"/>
    </g>
    <g id="Group_12" data-name="Group 12" transform="translate(718 1517)" clip-path="url(#clip-path)">
      <path id="Path_11" data-name="Path 11" d="M99.345,52.677S95,52.677,95,57.018V94.752S95,99.1,99.345,99.1h37.734s4.348,0,4.348-4.348V57.018s0-4.341-4.348-4.341Z" transform="translate(437.943 142.408)" fill="#fff"/>
    </g>
    <g id="Group_13" data-name="Group 13" transform="translate(718 1517)" clip-path="url(#clip-path)">
      <path id="Path_12" data-name="Path 12" d="M109.731,52.677s-4.348,0-4.348,4.341V94.752s0,4.348,4.348,4.348H210.3s4.341,0,4.341-4.348V57.018s0-4.341-4.341-4.341Z" transform="translate(497.202 142.408)" fill="#fff"/>
    </g>
    <g id="Group_14" data-name="Group 14" transform="translate(718 1517)" clip-path="url(#clip-path)">
      <path id="Path_13" data-name="Path 13" d="M53.219,42.3s-4.348,0-4.348,4.341V84.372s0,4.348,4.348,4.348H90.953s4.348,0,4.348-4.348V46.638s0-4.341-4.348-4.341Z" transform="translate(174.548 83.143)" fill="#fff"/>
    </g>
    <g id="Group_15" data-name="Group 15" transform="translate(718 1517)" clip-path="url(#clip-path)">
      <path id="Path_14" data-name="Path 14" d="M42.839,42.3s-4.348,0-4.348,4.341V84.372s0,4.348,4.348,4.348H80.573s4.348,0,4.348-4.348V46.638s0-4.341-4.348-4.341Z" transform="translate(115.283 83.143)" fill="#fff"/>
    </g>
    <g id="Group_16" data-name="Group 16" transform="translate(718 1517)" clip-path="url(#clip-path)">
      <path id="Path_15" data-name="Path 15" d="M27.846,42.3s-4.348,0-4.348,4.341V84.372s0,4.348,4.348,4.348H96.531s4.348,0,4.348-4.348V46.638s0-4.341-4.348-4.341Z" transform="translate(29.681 83.143)" fill="#fff"/>
    </g>
    <g id="Group_17" data-name="Group 17" transform="translate(718 1517)" clip-path="url(#clip-path)">
      <path id="Path_16" data-name="Path 16" d="M63.6,42.3s-4.348,0-4.348,4.341V84.372s0,4.348,4.348,4.348h37.734s4.348,0,4.348-4.348V46.638s0-4.341-4.348-4.341Z" transform="translate(233.806 83.143)" fill="#fff"/>
    </g>
    <g id="Group_18" data-name="Group 18" transform="translate(718 1517)" clip-path="url(#clip-path)">
      <path id="Path_17" data-name="Path 17" d="M73.972,42.3s-4.341,0-4.341,4.341V84.372s0,4.348,4.341,4.348h37.734s4.348,0,4.348-4.348V46.638s0-4.341-4.348-4.341Z" transform="translate(293.076 83.143)" fill="#fff"/>
    </g>
    <g id="Group_19" data-name="Group 19" transform="translate(718 1517)" clip-path="url(#clip-path)">
      <path id="Path_18" data-name="Path 18" d="M84.358,42.3s-4.348,0-4.348,4.341V84.372s0,4.348,4.348,4.348h37.734s4.341,0,4.341-4.348V46.638s0-4.341-4.341-4.341Z" transform="translate(352.335 83.143)" fill="#fff"/>
    </g>
    <g id="Group_20" data-name="Group 20" transform="translate(718 1517)" clip-path="url(#clip-path)">
      <path id="Path_19" data-name="Path 19" d="M94.732,42.3s-4.341,0-4.341,4.341V84.372s0,4.348,4.341,4.348h37.734s4.348,0,4.348-4.348V46.638s0-4.341-4.348-4.341Z" transform="translate(411.605 83.143)" fill="#fff"/>
    </g>
    <g id="Group_21" data-name="Group 21" transform="translate(718 1517)" clip-path="url(#clip-path)">
      <path id="Path_20" data-name="Path 20" d="M105.118,42.3s-4.348,0-4.348,4.341V84.372s0,4.348,4.348,4.348h37.734s4.341,0,4.341-4.348V46.638s0-4.341-4.341-4.341Z" transform="translate(470.864 83.143)" fill="#fff"/>
    </g>
    <g id="Group_22" data-name="Group 22" transform="translate(718 1517)" clip-path="url(#clip-path)">
      <path id="Path_21" data-name="Path 21" d="M115.492,42.3s-4.341,0-4.341,4.341V84.372s0,4.348,4.341,4.348h61.875s4.348,0,4.348-4.348V46.638s0-4.341-4.348-4.341Z" transform="translate(530.134 83.143)" fill="#fff"/>
    </g>
    <g id="Group_23" data-name="Group 23" transform="translate(718 1517)" clip-path="url(#clip-path)">
      <path id="Path_22" data-name="Path 22" d="M78.329,31.916s-4.341,0-4.341,4.348V74s0,4.348,4.341,4.348H116.07s4.341,0,4.341-4.348V36.264s0-4.348-4.341-4.348Z" transform="translate(317.953 23.873)" fill="#fff"/>
    </g>
    <g id="Group_24" data-name="Group 24" transform="translate(718 1517)" clip-path="url(#clip-path)">
      <path id="Path_23" data-name="Path 23" d="M68.231,31.916s-4.341,0-4.341,4.348V74s0,4.348,4.341,4.348h37.741s4.341,0,4.341-4.348V36.264s0-4.348-4.341-4.348Z" transform="translate(260.298 23.873)" fill="#fff"/>
    </g>
    <g id="Group_25" data-name="Group 25" transform="translate(718 1517)" clip-path="url(#clip-path)">
      <path id="Path_24" data-name="Path 24" d="M58.139,31.916s-4.348,0-4.348,4.348V74s0,4.348,4.348,4.348H95.873s4.341,0,4.341-4.348V36.264s0-4.348-4.341-4.348Z" transform="translate(202.638 23.873)" fill="#fff"/>
    </g>
    <g id="Group_26" data-name="Group 26" transform="translate(718 1517)" clip-path="url(#clip-path)">
      <path id="Path_25" data-name="Path 25" d="M48.042,31.916s-4.348,0-4.348,4.348V74s0,4.348,4.348,4.348H85.776s4.341,0,4.341-4.348V36.264s0-4.348-4.341-4.348Z" transform="translate(144.99 23.873)" fill="#fff"/>
    </g>
    <g id="Group_27" data-name="Group 27" transform="translate(718 1517)" clip-path="url(#clip-path)">
      <path id="Path_26" data-name="Path 26" d="M37.944,31.916s-4.348,0-4.348,4.348V74s0,4.348,4.348,4.348H75.678s4.348,0,4.348-4.348V36.264s0-4.348-4.348-4.348Z" transform="translate(87.336 23.873)" fill="#fff"/>
    </g>
    <g id="Group_28" data-name="Group 28" transform="translate(718 1517)" clip-path="url(#clip-path)">
      <path id="Path_27" data-name="Path 27" d="M27.846,31.916s-4.348,0-4.348,4.348V74s0,4.348,4.348,4.348H65.58s4.348,0,4.348-4.348V36.264s0-4.348-4.348-4.348Z" transform="translate(29.681 23.873)" fill="#fff"/>
    </g>
    <g id="Group_29" data-name="Group 29" transform="translate(718 1517)" clip-path="url(#clip-path)">
      <path id="Path_28" data-name="Path 28" d="M88.427,31.916s-4.341,0-4.341,4.348V74s0,4.348,4.341,4.348h37.734s4.348,0,4.348-4.348V36.264s0-4.348-4.348-4.348Z" transform="translate(375.607 23.873)" fill="#fff"/>
    </g>
    <g id="Group_30" data-name="Group 30" transform="translate(718 1517)" clip-path="url(#clip-path)">
      <path id="Path_29" data-name="Path 29" d="M98.532,31.916s-4.348,0-4.348,4.348V74s0,4.348,4.348,4.348h37.727s4.348,0,4.348-4.348V36.264s0-4.348-4.348-4.348Z" transform="translate(433.261 23.873)" fill="#fff"/>
    </g>
    <g id="Group_31" data-name="Group 31" transform="translate(718 1517)" clip-path="url(#clip-path)">
      <path id="Path_30" data-name="Path 30" d="M108.63,31.916s-4.348,0-4.348,4.348V74s0,4.348,4.348,4.348h37.727s4.348,0,4.348-4.348V36.264s0-4.348-4.348-4.348Z" transform="translate(490.915 23.873)" fill="#fff"/>
    </g>
    <g id="Group_32" data-name="Group 32" transform="translate(718 1517)" clip-path="url(#clip-path)">
      <path id="Path_31" data-name="Path 31" d="M118.727,31.916s-4.348,0-4.348,4.348V74s0,4.348,4.348,4.348h37.734s4.341,0,4.341-4.348V36.264s0-4.348-4.341-4.348Z" transform="translate(548.564 23.873)" fill="#fff"/>
    </g>
  </g>
</svg>
