<?xml version="1.0" encoding="utf-8"?>
<!-- Generator: Adobe Illustrator 23.0.3, SVG Export Plug-In . SVG Version: 6.00 Build 0)  -->
<svg version="1.1" id="Layer_1" xmlns="http://www.w3.org/2000/svg" xmlns:xlink="http://www.w3.org/1999/xlink" x="0px" y="0px"
	 viewBox="0 0 24 24" style="enable-background:new 0 0 24 24;" xml:space="preserve">
<style type="text/css">
	.st0{fill:#FFFFFF;}
</style>
<path class="st0" d="M19.7,0.5H4.3c-2.1,0-3.8,1.7-3.8,3.8c0,0,0,0,0,0v15.4c0,2.1,1.7,3.8,3.8,3.8h15.4c2.1,0,3.8-1.7,3.8-3.8V4.3
	C23.5,2.2,21.8,0.5,19.7,0.5z M19.1,16.9c0,0.3-0.2,0.5-0.4,0.5c0,0,0,0-0.1,0H8.4c-1.9,0-3.5-1.6-3.5-3.5V7.1
	c0-0.3,0.2-0.5,0.4-0.5c0,0,0,0,0.1,0h2.8c0.3,0,0.5,0.2,0.5,0.4c0,0,0,0,0,0.1v6.1c0,0.1,0,0.1,0.1,0.1h1.5V7.1
	c0-0.3,0.2-0.5,0.4-0.5c0,0,0,0,0.1,0h2.6c0.3,0,0.5,0.2,0.5,0.4c0,0,0,0,0,0.1v6.2h1.6V7.1c0-0.3,0.2-0.5,0.4-0.5c0,0,0,0,0.1,0
	h2.8c0.3,0,0.5,0.2,0.5,0.4c0,0,0,0,0,0.1v9.8H19.1z"/>
</svg>
