<svg xmlns="http://www.w3.org/2000/svg" width="24" height="24" viewBox="0 0 24 24"><path d="M19.7.5H4.3A3.8,3.8,0,0,0,.5,4.3V19.7a3.8,3.8,0,0,0,3.8,3.8H19.7a3.8,3.8,0,0,0,3.8-3.8V4.3A3.8,3.8,0,0,0,19.7.5Zm-.6,16.4a.472.472,0,0,1-.5.5H8.4a3.543,3.543,0,0,1-3.5-3.5V7.1a.472.472,0,0,1,.5-.5H8.2a.472.472,0,0,1,.5.5v6.1c0,.1,0,.1.1.1h1.5V7.1a.472.472,0,0,1,.5-.5h2.6a.472.472,0,0,1,.5.5v6.2h1.6V7.1a.472.472,0,0,1,.5-.5h2.8a.472.472,0,0,1,.5.5v9.8Z" fill="#fff" stroke="#5cdb95" stroke-linejoin="round" stroke-width="1"/></svg>